<?xml version="1.0" standalone="no"?>
<!DOCTYPE svg PUBLIC "-//W3C//DTD SVG 20010904//EN"
 "http://www.w3.org/TR/2001/REC-SVG-20010904/DTD/svg10.dtd">
<svg version="1.0" xmlns="http://www.w3.org/2000/svg"
 width="225.000000pt" height="225.000000pt" viewBox="0 0 225.000000 225.000000"
 preserveAspectRatio="xMidYMid meet">

<g transform="translate(0.000000,225.000000) scale(0.100000,-0.100000)"
fill="#000000" stroke="none">
<path d="M1114 2077 c-463 -370 -684 -551 -684 -559 0 -12 179 -238 188 -238
7 0 155 116 232 180 25 21 146 120 270 221 124 100 249 202 277 226 l53 44
-87 107 c-47 59 -91 113 -97 119 -9 10 -44 -14 -152 -100z"/>
<path d="M1488 1613 c-73 -60 -234 -188 -356 -286 -122 -99 -222 -184 -222
-190 0 -7 32 -50 71 -97 130 -156 117 -145 137 -128 13 12 289 233 449 360 8
6 35 -21 90 -89 44 -54 82 -103 86 -110 5 -7 -30 -41 -90 -90 -54 -44 -206
-166 -338 -273 -132 -107 -293 -237 -357 -289 -65 -51 -118 -98 -118 -104 0
-5 26 -40 58 -77 31 -37 70 -84 85 -104 15 -20 34 -36 42 -36 8 0 126 90 262
199 1031 830 909 728 891 749 -40 46 -201 244 -418 515 -69 86 -128 156 -131
157 -4 0 -67 -48 -141 -107z"/>
<path d="M208 1348 c-122 -96 -124 -100 -85 -140 19 -19 205 -253 256 -323 66
-89 271 -325 283 -325 5 0 58 39 116 87 59 48 109 88 112 90 6 5 6 6 -175 229
-160 198 -178 220 -212 260 -10 12 -52 65 -93 117 -41 53 -77 96 -80 96 -3 1
-58 -41 -122 -91z"/>
</g>
</svg>
